<?xml version="1.0" standalone="no"?>
<!DOCTYPE svg PUBLIC "-//W3C//DTD SVG 20010904//EN"
 "http://www.w3.org/TR/2001/REC-SVG-20010904/DTD/svg10.dtd">
<svg version="1.0" xmlns="http://www.w3.org/2000/svg"
 width="566.000000pt" height="283.000000pt" viewBox="0 0 566.000000 283.000000"
 preserveAspectRatio="xMidYMid meet">

<g transform="translate(0.000000,283.000000) scale(0.100000,-0.100000)"
fill="#000000" stroke="none">
<path d="M3405 1950 c3 -5 1 -10 -4 -10 -6 0 -11 -5 -11 -11 0 -8 5 -8 15 1
17 14 20 30 4 30 -5 0 -7 -4 -4 -10z"/>
<path d="M1086 1879 c-27 -21 -34 -39 -15 -39 6 0 13 9 16 20 3 11 14 20 24
20 11 0 19 5 19 10 0 16 -15 12 -44 -11z"/>
<path d="M1011 1805 c-17 -19 -36 -35 -42 -35 -6 0 -7 -5 -4 -10 4 -6 12 -4
21 5 9 8 20 15 25 15 6 0 8 3 6 8 -3 4 1 12 8 19 10 9 14 10 17 1 3 -7 7 -5
11 5 12 31 -10 27 -42 -8z"/>
<path d="M3765 1789 c-4 -6 -5 -12 -2 -15 2 -3 7 2 10 11 7 17 1 20 -8 4z"/>
<path d="M931 1726 c-16 -17 -19 -26 -11 -31 7 -4 17 -2 23 4 6 6 7 11 3 11
-5 0 -3 7 4 15 21 26 5 27 -19 1z"/>
<path d="M895 1680 c3 -5 8 -10 11 -10 2 0 4 5 4 10 0 6 -5 10 -11 10 -5 0 -7
-4 -4 -10z"/>
<path d="M5240 1670 c0 -6 7 -10 15 -10 8 0 15 2 15 4 0 2 -7 6 -15 10 -8 3
-15 1 -15 -4z"/>
<path d="M869 1648 c-6 -13 -31 -49 -55 -80 -26 -32 -40 -59 -34 -63 5 -3 10
1 10 10 0 8 7 18 15 21 8 4 13 10 10 14 -3 5 5 16 17 25 13 8 23 19 24 23 2
21 28 61 37 55 6 -3 7 -1 3 5 -10 17 -14 15 -27 -10z"/>
<path d="M4611 1654 c0 -11 3 -14 6 -6 3 7 2 16 -1 19 -3 4 -6 -2 -5 -13z"/>
<path d="M2877 1632 c-10 -10 -17 -22 -17 -27 0 -4 9 2 20 15 11 13 20 25 20
27 0 7 -8 2 -23 -15z"/>
<path d="M2481 1624 c0 -11 3 -14 6 -6 3 7 2 16 -1 19 -3 4 -6 -2 -5 -13z"/>
<path d="M1210 1620 c-13 -8 -12 -10 3 -10 9 0 17 5 17 10 0 12 -1 12 -20 0z"/>
<path d="M1240 1618 c0 -4 3 -8 8 -9 4 0 15 -2 25 -4 9 -2 15 0 12 5 -3 5 1
10 7 13 7 3 -2 5 -19 4 -18 0 -33 -4 -33 -9z"/>
<path d="M4592 1605 c0 -16 2 -22 5 -12 2 9 2 23 0 30 -3 6 -5 -1 -5 -18z"/>
<path d="M1886 1612 c-3 -5 1 -9 9 -9 8 0 12 4 9 9 -3 4 -7 8 -9 8 -2 0 -6 -4
-9 -8z"/>
<path d="M1874 1583 c3 -6 -2 -16 -11 -22 -16 -9 -16 -10 3 -8 21 1 26 19 9
34 -4 4 -5 3 -1 -4z"/>
<path d="M2826 1568 c-22 -31 -20 -45 2 -25 10 10 19 24 19 32 0 20 -3 19 -21
-7z"/>
<path d="M4570 1559 c0 -5 5 -7 10 -4 6 3 10 8 10 11 0 2 -4 4 -10 4 -5 0 -10
-5 -10 -11z"/>
<path d="M1175 1539 c-4 -6 -5 -12 -2 -15 2 -3 7 2 10 11 7 17 1 20 -8 4z"/>
<path d="M4929 1546 c-6 -4 -4 -44 2 -40 4 2 5 12 2 21 -4 10 -2 14 5 9 6 -3
13 -3 16 2 4 7 -17 13 -25 8z"/>
<path d="M2763 1490 c-3 -11 -10 -17 -16 -13 -6 4 -7 1 -2 -7 6 -10 4 -12 -11
-6 -10 4 -15 4 -11 0 4 -5 -3 -14 -15 -21 -21 -12 -21 -13 -3 -11 30 4 101 78
75 78 -6 0 -14 -9 -17 -20z"/>
<path d="M4896 1502 c-2 -4 -1 -14 4 -22 7 -11 9 -9 7 8 -1 24 -3 26 -11 14z"/>
<path d="M4190 1473 c0 -6 -8 -13 -17 -15 -10 -2 -13 -6 -8 -9 6 -4 18 -4 27
0 13 4 15 10 8 21 -6 9 -10 10 -10 3z"/>
<path d="M740 1444 c0 -8 5 -12 10 -9 6 4 8 11 5 16 -9 14 -15 11 -15 -7z"/>
<path d="M4520 1439 c0 -5 5 -7 10 -4 6 3 10 8 10 11 0 2 -4 4 -10 4 -5 0 -10
-5 -10 -11z"/>
<path d="M4135 1430 c-3 -5 1 -10 9 -10 9 0 16 5 16 10 0 6 -4 10 -9 10 -6 0
-13 -4 -16 -10z"/>
<path d="M726 1417 c3 -10 9 -15 12 -12 3 3 0 11 -7 18 -10 9 -11 8 -5 -6z"/>
<path d="M4506 1403 c-6 -14 -5 -15 5 -6 7 7 10 15 7 18 -3 3 -9 -2 -12 -12z"/>
<path d="M4636 1412 c-3 -5 1 -9 9 -9 8 0 15 4 15 9 0 4 -4 8 -9 8 -6 0 -12
-4 -15 -8z"/>
<path d="M713 1385 c0 -8 4 -12 9 -9 5 3 6 10 3 15 -9 13 -12 11 -12 -6z"/>
<path d="M4613 1385 c0 -8 4 -15 9 -15 4 0 8 4 8 9 0 6 -4 12 -8 15 -5 3 -9
-1 -9 -9z"/>
<path d="M5311 1344 c0 -11 3 -14 6 -6 3 7 2 16 -1 19 -3 4 -6 -2 -5 -13z"/>
<path d="M1685 1310 c-4 -6 -11 -7 -17 -4 -7 4 -8 2 -4 -4 7 -12 36 -5 36 9 0
12 -7 11 -15 -1z"/>
<path d="M2140 1316 c0 -2 8 -10 18 -17 15 -13 16 -12 3 4 -13 16 -21 21 -21
13z"/>
<path d="M2490 1290 c8 -5 24 -9 35 -9 l20 0 -20 9 c-11 5 -27 9 -35 9 -13 1
-13 0 0 -9z"/>
<path d="M2568 1293 c7 -3 16 -2 19 1 4 3 -2 6 -13 5 -11 0 -14 -3 -6 -6z"/>
<path d="M4840 1275 c13 -14 26 -25 28 -25 3 0 -5 11 -18 25 -13 14 -26 25
-28 25 -3 0 5 -11 18 -25z"/>
<path d="M5312 1270 c0 -19 2 -27 5 -17 2 9 2 25 0 35 -3 9 -5 1 -5 -18z"/>
<path d="M2628 1273 c7 -3 16 -2 19 1 4 3 -2 6 -13 5 -11 0 -14 -3 -6 -6z"/>
<path d="M2190 1261 c0 -6 4 -13 10 -16 6 -3 7 1 4 9 -7 18 -14 21 -14 7z"/>
<path d="M2240 1180 c11 -16 26 -33 32 -36 7 -4 -1 9 -16 29 -34 44 -46 50
-16 7z"/>
<path d="M2930 1095 c-19 -25 -55 -55 -78 -67 -24 -12 -39 -24 -33 -26 5 -2
21 4 35 14 14 9 26 13 26 9 0 -9 26 18 29 30 1 6 16 25 33 42 18 18 30 35 27
37 -3 3 -20 -15 -39 -39z"/>
<path d="M5311 1104 c0 -11 3 -14 6 -6 3 7 2 16 -1 19 -3 4 -6 -2 -5 -13z"/>
<path d="M2330 1054 c1 -13 29 -48 34 -43 2 2 -4 15 -15 28 -10 13 -19 19 -19
15z"/>
<path d="M785 1020 c6 -9 4 -12 -7 -8 -8 4 -20 3 -27 -2 -10 -5 -9 -9 2 -13
21 -8 55 17 37 28 -9 6 -11 4 -5 -5z"/>
<path d="M3838 1018 c6 -6 18 -8 28 -6 14 3 12 5 -9 10 -19 3 -25 2 -19 -4z"/>
<path d="M4058 1023 c7 -3 16 -2 19 1 4 3 -2 6 -13 5 -11 0 -14 -3 -6 -6z"/>
<path d="M1276 999 c4 -8 -1 -9 -17 -4 -13 4 -21 4 -17 0 4 -4 19 -9 33 -11
22 -2 24 0 14 12 -14 17 -23 19 -13 3z"/>
<path d="M2765 975 c-16 -8 -23 -14 -15 -14 8 0 26 6 40 14 32 18 15 18 -25 0z"/>
<path d="M665 967 c-11 -7 -21 -19 -23 -27 -1 -10 3 -8 13 5 13 17 17 18 25 5
7 -11 9 -10 7 8 0 12 -1 22 -2 22 0 -1 -9 -6 -20 -13z"/>
<path d="M1193 973 c9 -2 23 -2 30 0 6 3 -1 5 -18 5 -16 0 -22 -2 -12 -5z"/>
<path d="M5060 976 c0 -2 8 -10 18 -17 15 -13 16 -12 3 4 -13 16 -21 21 -21
13z"/>
<path d="M1134 955 c-17 -13 -17 -14 -1 -15 9 0 17 5 17 11 0 6 9 8 23 4 17
-5 19 -4 7 4 -20 14 -23 14 -46 -4z"/>
<path d="M4590 966 c0 -2 7 -9 15 -16 9 -7 15 -8 15 -2 0 5 -7 12 -15 16 -8 3
-15 4 -15 2z"/>
<path d="M590 940 c-13 -9 -13 -10 0 -10 8 0 22 5 30 10 13 9 13 10 0 10 -8 0
-22 -5 -30 -10z"/>
<path d="M1747 933 c4 -9 10 -10 24 -2 24 13 24 14 -5 14 -14 0 -22 -5 -19
-12z"/>
<path d="M2655 940 c-16 -7 -17 -9 -3 -9 9 -1 20 4 23 9 7 11 7 11 -20 0z"/>
<path d="M2700 940 c-8 -5 -10 -10 -5 -10 6 0 17 5 25 10 8 5 11 10 5 10 -5 0
-17 -5 -25 -10z"/>
<path d="M4564 936 c-10 -8 -19 -20 -19 -28 0 -7 -9 -12 -20 -10 -15 2 -17 1
-6 -6 16 -11 -3 -27 -19 -17 -6 4 -9 1 -8 -5 2 -7 -5 -14 -15 -15 -11 -2 -22
-6 -25 -9 -3 -4 4 -5 17 -3 29 4 93 55 86 67 -7 11 30 32 40 22 5 -4 5 -1 1 6
-9 15 -8 15 -32 -2z"/>
<path d="M1056 925 c-29 -22 -15 -25 19 -4 17 11 23 19 15 19 -8 -1 -24 -7
-34 -15z"/>
<path d="M1705 930 c-3 -6 1 -7 9 -4 18 7 21 14 7 14 -6 0 -13 -4 -16 -10z"/>
<path d="M540 926 c0 -2 7 -6 15 -10 8 -3 15 -1 15 4 0 6 -7 10 -15 10 -8 0
-15 -2 -15 -4z"/>
<path d="M2617 919 c7 -7 15 -10 18 -7 3 3 -2 9 -12 12 -14 6 -15 5 -6 -5z"/>
<path d="M3524 916 c11 -9 34 -15 50 -15 31 1 31 1 -4 8 -20 4 -42 11 -50 15
-8 4 -6 0 4 -8z"/>
<path d="M1670 908 c0 -6 -6 -8 -13 -5 -8 3 -14 0 -14 -7 0 -6 8 -12 18 -12
10 0 16 3 13 7 -2 4 6 9 18 11 l23 3 -22 7 c-13 3 -23 2 -23 -4z"/>
<path d="M3466 908 c3 -4 11 -5 19 -1 21 7 19 12 -4 10 -11 0 -18 -5 -15 -9z"/>
<path d="M984 879 c-19 -22 -19 -22 3 -10 24 12 39 31 25 31 -5 0 -17 -10 -28
-21z"/>
<path d="M2488 893 c7 -3 16 -2 19 1 4 3 -2 6 -13 5 -11 0 -14 -3 -6 -6z"/>
<path d="M2550 891 c0 -5 9 -7 20 -4 11 3 20 7 20 9 0 2 -9 4 -20 4 -11 0 -20
-4 -20 -9z"/>
<path d="M5275 889 c-32 -16 -48 -46 -35 -67 9 -14 10 -13 5 6 -6 20 -4 22 18
17 19 -5 28 -2 36 14 10 17 9 20 -4 15 -8 -3 -13 -9 -10 -13 2 -4 -3 -8 -12
-8 -12 0 -9 7 11 24 28 24 25 28 -9 12z"/>
<path d="M948 879 c-10 -5 -18 -14 -18 -19 0 -17 15 -11 28 10 14 23 13 23
-10 9z"/>
<path d="M1582 881 c-11 -6 -9 -9 5 -13 12 -3 20 0 20 8 0 16 -6 17 -25 5z"/>
<path d="M2410 870 c-25 -8 -25 -8 -2 -9 13 -1 21 -5 18 -10 -4 -5 3 -7 14 -4
11 3 20 12 20 19 0 15 -12 16 -50 4z"/>
<path d="M2485 870 c-13 -5 -14 -9 -5 -9 8 0 24 4 35 9 13 5 14 9 5 9 -8 0
-24 -4 -35 -9z"/>
<path d="M1546 858 c5 -7 2 -9 -8 -6 -8 4 -21 2 -29 -3 -12 -7 3 -7 54 0 11 1
-2 21 -14 21 -6 0 -7 -5 -3 -12z"/>
<path d="M1470 830 c0 -5 -9 -10 -20 -10 -11 0 -20 -5 -20 -11 0 -6 -7 -8 -16
-5 -14 5 -15 4 -4 -9 13 -16 35 -21 25 -6 -3 5 11 15 30 21 19 6 33 16 30 21
-8 12 -25 12 -25 -1z"/>
<path d="M2348 833 c7 -3 16 -2 19 1 4 3 -2 6 -13 5 -11 0 -14 -3 -6 -6z"/>
<path d="M3395 810 c-11 -16 -22 -27 -26 -24 -4 2 -10 0 -13 -5 -4 -5 2 -8 11
-7 9 2 19 8 21 14 2 7 7 10 12 7 12 -7 30 19 22 32 -5 8 -14 2 -27 -17z"/>
<path d="M2247 822 c-30 -6 -74 -32 -55 -32 9 0 20 5 23 11 4 6 13 8 19 6 13
-5 44 9 36 16 -3 2 -13 2 -23 -1z"/>
<path d="M4405 810 c-13 -6 -15 -9 -5 -9 8 0 22 4 30 9 18 12 2 12 -25 0z"/>
<path d="M4364 791 c-5 -5 -25 -13 -44 -18 l-35 -9 28 -6 c18 -3 34 1 49 13
12 11 19 21 16 24 -2 3 -9 1 -14 -4z"/>
<path d="M2068 783 c-22 -5 -24 -23 -3 -23 8 0 15 4 15 9 0 5 10 12 23 14 18
3 18 4 2 4 -11 1 -28 -1 -37 -4z"/>
<path d="M1388 773 c7 -3 16 -2 19 1 4 3 -2 6 -13 5 -11 0 -14 -3 -6 -6z"/>
<path d="M3200 776 c0 -11 55 -33 69 -28 8 3 11 0 7 -6 -3 -6 8 -3 26 5 47 23
46 23 -11 17 -28 -2 -60 0 -71 6 -11 6 -20 8 -20 6z"/>
<path d="M5225 759 c-4 -6 -5 -12 -2 -15 2 -3 7 2 10 11 7 17 1 20 -8 4z"/>
</g>
</svg>
