<?xml version="1.0" standalone="no"?>
<!DOCTYPE svg PUBLIC "-//W3C//DTD SVG 20010904//EN"
 "http://www.w3.org/TR/2001/REC-SVG-20010904/DTD/svg10.dtd">
<svg version="1.0" xmlns="http://www.w3.org/2000/svg"
 width="566.000000pt" height="283.000000pt" viewBox="0 0 566.000000 283.000000"
 preserveAspectRatio="xMidYMid meet">

<g transform="translate(0.000000,283.000000) scale(0.100000,-0.100000)"
fill="#000000" stroke="none">
<path d="M1066 2488 c-19 -29 -40 -391 -24 -421 7 -14 19 -17 61 -15 45 3 52
6 55 26 2 12 -1 22 -7 22 -5 0 -17 8 -26 17 -15 15 -16 35 -10 177 6 150 5
163 -13 190 l-20 28 -16 -24z"/>
<path d="M1218 2486 c-25 -19 -22 -45 7 -58 41 -19 75 28 43 60 -15 15 -29 15
-50 -2z"/>
<path d="M1730 2433 c-33 -12 -50 -37 -50 -72 0 -49 13 -69 34 -52 8 7 16 25
18 39 3 31 31 37 36 9 7 -37 -7 -65 -37 -72 -40 -9 -60 -34 -67 -86 -8 -65 8
-82 88 -87 48 -3 67 0 76 11 20 24 17 262 -3 293 -15 24 -57 31 -95 17z m28
-235 c-5 -34 -38 -37 -38 -4 0 20 5 26 21 26 15 0 20 -5 17 -22z"/>
<path d="M1955 2424 c-34 -35 3 -103 43 -78 33 21 23 94 -14 94 -7 0 -20 -7
-29 -16z"/>
<path d="M1365 2390 c-13 -24 -15 -49 -10 -118 8 -115 12 -130 35 -142 16 -8
24 -6 41 11 19 19 21 29 15 89 -7 75 2 95 47 106 l27 6 0 -88 c0 -49 4 -95 9
-102 5 -8 21 -12 37 -10 l29 3 0 135 0 135 -28 3 c-16 2 -49 -4 -74 -12 -40
-14 -48 -14 -74 -1 -37 20 -36 20 -54 -15z"/>
<path d="M1225 2377 c-22 -35 -31 -192 -13 -227 17 -31 53 -38 67 -12 6 12 8
60 4 125 -5 84 -10 110 -24 123 -16 15 -19 14 -34 -9z"/>
<path d="M2192 2369 c-19 -6 -37 -19 -42 -32 -12 -28 -30 -154 -30 -206 0 -69
3 -71 90 -71 49 0 82 4 86 12 10 16 -33 48 -67 48 -22 0 -30 6 -35 24 -12 49
-3 61 51 64 27 2 53 9 57 15 9 14 11 119 2 141 -7 18 -58 20 -112 5z m58 -80
c0 -20 -24 -26 -35 -9 -8 13 14 42 26 34 5 -3 9 -14 9 -25z"/>
<path d="M1963 2308 c-4 -7 -10 -76 -13 -153 l-5 -140 -25 0 c-17 0 -26 6 -28
20 -8 54 -13 65 -32 65 -27 0 -42 -33 -38 -83 3 -39 6 -44 48 -64 70 -35 137
-50 152 -35 28 28 24 355 -4 389 -13 17 -44 17 -55 1z"/>
<path d="M3120 2129 c0 -8 9 -27 20 -44 11 -16 20 -37 20 -45 0 -16 -182 -190
-199 -190 -6 0 -11 9 -11 20 0 28 -33 90 -62 117 -13 12 -46 32 -73 45 -44 20
-65 23 -165 22 -81 -1 -134 -7 -177 -20 -91 -28 -472 -234 -473 -256 0 -24 60
-210 73 -226 5 -7 16 -11 24 -8 7 3 13 1 13 -3 0 -5 -6 -12 -12 -14 -10 -4
-10 -6 0 -6 7 -1 15 6 18 14 4 8 10 15 15 15 6 0 5 -8 -1 -19 -7 -14 -7 -20 2
-23 17 -6 -20 -178 -40 -185 -17 -7 -54 36 -45 52 4 5 3 7 -2 3 -7 -7 -62 66
-64 84 -1 4 -17 24 -37 43 -32 32 -41 36 -82 34 -26 -2 -51 -8 -57 -15 -5 -7
-23 -16 -40 -20 l-30 -7 19 22 c11 11 25 21 33 21 8 0 12 4 8 9 -3 5 0 13 6
17 8 5 9 3 4 -6 -6 -9 -4 -11 4 -6 7 5 10 14 7 22 -3 8 -1 14 4 14 6 0 10 9
10 20 0 11 4 20 9 20 17 0 -10 93 -45 153 -95 163 -197 247 -298 247 -104 0
-241 -99 -281 -202 l-17 -47 25 -44 26 -44 -16 -144 c-9 -79 -16 -226 -17
-326 -1 -101 -4 -183 -8 -183 -13 0 -87 92 -107 134 -38 83 -47 189 -25 331 5
36 9 44 14 30 6 -17 7 -16 12 7 3 15 1 25 -3 22 -16 -10 -9 13 11 37 15 19 19
20 20 8 0 -11 9 -16 26 -16 18 0 22 2 13 8 -7 4 -10 11 -6 15 4 4 13 2 19 -4
7 -7 16 -12 22 -12 5 0 6 3 3 7 -4 3 1 12 10 18 15 11 15 15 4 29 -11 13 -11
22 -3 41 9 18 9 25 0 25 -36 0 -277 33 -295 40 -24 10 -53 4 -53 -11 0 -17
-48 -79 -53 -67 -6 18 22 70 33 63 6 -4 10 0 10 7 0 23 21 38 40 28 12 -6 17
-5 17 5 0 8 -5 11 -11 8 -6 -3 2 8 18 25 30 32 43 41 31 22 -3 -5 1 -10 9 -10
10 0 13 6 9 17 -5 13 -3 15 13 9 15 -6 17 -5 7 5 -10 10 -8 19 14 41 l27 28
-19 33 c-10 17 -34 55 -52 84 l-32 51 -128 -65 c-95 -47 -140 -65 -173 -66
-43 -2 -45 -1 -43 26 1 18 -3 27 -13 27 -29 0 -54 -21 -92 -78 -85 -125 -104
-190 -64 -222 12 -10 18 -21 14 -25 -4 -5 0 -6 8 -3 8 3 25 2 38 -3 22 -8 22
-9 6 -40 -9 -18 -44 -71 -79 -119 -125 -172 -198 -323 -211 -433 -5 -43 -2
-63 14 -98 25 -54 55 -89 76 -89 8 0 17 -4 20 -9 3 -5 41 -6 83 -4 43 3 85 5
93 5 8 1 21 5 28 11 6 5 12 6 12 1 0 -5 4 -4 8 1 15 20 101 55 108 43 4 -7 3
-8 -4 -4 -7 4 -12 2 -12 -3 0 -6 3 -11 8 -11 14 0 27 15 27 30 0 9 7 14 19 12
10 -2 15 1 12 7 -4 5 -1 13 5 17 8 5 9 3 4 -6 -6 -10 -4 -12 10 -6 15 5 16 4
5 -9 -11 -13 -10 -14 3 -9 12 4 19 -6 31 -44 17 -58 31 -87 59 -122 12 -15 18
-18 14 -7 -7 19 9 24 16 5 3 -7 6 -4 6 8 1 26 60 56 84 43 11 -7 26 -5 47 6
36 19 40 28 5 15 -15 -6 -26 -6 -30 0 -4 6 2 10 12 10 11 0 23 4 29 9 16 15
114 43 130 37 9 -3 12 -2 9 4 -3 6 6 15 20 20 34 13 44 13 25 -1 -12 -8 -11
-9 5 -6 11 2 19 9 17 15 -3 16 6 15 22 -1 10 -9 36 -70 36 -83 0 -1 -18 -13
-40 -25 -22 -13 -40 -29 -40 -36 0 -27 33 -94 52 -104 16 -8 19 -8 13 1 -5 8
-3 11 6 8 8 -3 13 -13 13 -22 -2 -15 0 -16 20 -3 23 16 25 29 5 36 -8 2 -10
-2 -5 -15 6 -15 5 -17 -5 -7 -20 20 3 38 29 24 29 -15 40 -14 18 2 -16 12 -17
15 -3 20 8 3 30 4 49 2 18 -2 27 -1 20 2 -17 7 -5 23 19 23 10 0 19 5 19 11 0
5 4 8 9 4 5 -3 12 -1 16 5 9 14 75 41 85 35 5 -3 10 0 12 6 3 8 10 6 21 -5 9
-10 17 -13 17 -7 0 5 -5 13 -11 17 -8 5 -6 10 5 16 11 6 22 6 30 -1 16 -13 49
-4 40 11 -4 6 -10 5 -15 -3 -4 -7 -11 -10 -16 -6 -4 5 -1 12 6 16 16 10 51 3
51 -11 0 -5 5 -6 11 -3 6 5 4 12 -8 21 -17 13 -17 14 1 7 14 -5 17 -3 11 7 -5
7 -4 11 1 7 5 -3 17 1 28 8 26 20 12 70 -34 122 -45 51 -120 162 -120 177 0 6
15 21 33 34 33 22 68 25 87 6 5 -5 70 -127 144 -269 102 -199 139 -261 154
-263 14 -2 19 -9 16 -20 -5 -15 -4 -15 6 1 6 9 18 17 26 17 8 0 13 4 10 8 -3
5 24 15 59 23 35 8 61 11 59 7 -3 -4 -1 -8 5 -8 5 0 18 -3 28 -6 14 -4 15 -4
4 4 -23 16 -2 34 32 27 21 -4 27 -3 19 3 -16 11 28 22 87 22 28 0 33 3 21 11
-12 9 -12 10 3 5 11 -3 24 -3 30 1 7 4 21 9 32 10 17 2 16 0 -5 -13 -14 -9
-17 -13 -7 -10 10 3 23 6 29 6 7 0 8 15 4 39 -4 26 -2 42 6 47 8 5 9 2 5 -9
-3 -9 -2 -19 4 -23 5 -3 7 -13 4 -23 -4 -12 2 -17 22 -19 26 -2 26 -1 7 12
-10 8 -16 18 -11 22 4 4 7 2 7 -4 0 -15 30 -15 50 -2 11 8 7 9 -15 5 -21 -3
-17 0 13 11 34 12 46 13 55 5 9 -9 8 -11 -4 -6 -10 4 -16 0 -16 -10 0 -17 13
-20 22 -4 4 6 13 8 21 5 20 -7 17 4 -3 20 -17 13 -17 13 0 14 18 0 74 23 149
61 27 14 39 16 44 7 4 -6 3 -8 -3 -5 -5 3 -10 0 -10 -8 0 -10 4 -12 12 -5 7 5
16 6 20 2 5 -4 4 -1 0 7 -6 11 -4 13 9 8 10 -4 15 -3 11 3 -3 6 -1 10 4 10 6
0 11 5 11 10 0 6 -11 3 -25 -6 -14 -9 -25 -12 -25 -6 0 6 8 13 19 17 10 3 26
14 36 25 19 21 45 27 45 10 0 -5 -6 -10 -14 -10 -18 0 -30 -17 -18 -24 5 -3
22 8 38 25 18 19 23 28 11 24 -10 -4 -17 -3 -17 4 0 6 5 11 11 11 5 0 8 4 4 9
-3 5 0 13 6 16 6 4 19 26 29 49 14 30 19 35 19 19 1 -12 -4 -25 -10 -28 -7 -5
-5 -11 4 -18 8 -7 19 -43 25 -82 6 -38 25 -97 41 -130 29 -58 107 -145 131
-145 6 0 8 -4 5 -10 -3 -5 3 -10 15 -10 12 0 19 -4 15 -9 -6 -10 68 -6 120 6
17 4 37 8 45 8 8 1 14 6 13 13 -3 13 9 16 20 5 4 -3 -1 -16 -10 -27 -10 -12
-4 -9 11 6 18 16 32 42 36 65 3 21 11 37 18 36 7 -2 9 4 5 14 -4 11 -3 14 5 9
8 -4 10 -2 6 7 -7 19 26 27 79 20 23 -3 58 -6 77 -5 l35 1 -30 -15 c-33 -15
-36 -16 59 2 36 6 39 5 33 -15 -3 -11 -1 -21 4 -21 5 0 9 7 9 16 0 9 5 12 12
8 8 -5 9 0 4 17 -3 13 -14 49 -22 79 -18 59 -32 446 -17 437 4 -3 9 25 10 62
0 37 8 91 17 120 9 30 14 57 11 61 -2 3 3 31 11 61 9 30 16 64 18 76 3 36 12
36 26 1 8 -18 23 -43 35 -55 47 -49 51 -68 26 -141 -43 -128 -48 -295 -15
-459 6 -31 5 -33 -20 -33 -21 0 -26 -5 -26 -23 0 -43 20 -56 85 -56 82 -1 200
6 242 14 22 4 33 3 29 -4 -4 -5 -2 -12 4 -16 5 -3 10 1 10 9 0 8 3 17 8 19 4
3 8 -34 10 -81 5 -164 35 -230 102 -227 19 1 45 7 58 14 12 6 27 9 32 6 6 -3
10 -1 10 4 0 6 7 11 15 11 8 0 15 5 15 11 0 5 5 7 10 4 6 -3 10 -3 10 2 0 16
47 30 66 20 16 -8 17 -7 7 4 -20 21 -15 31 10 18 19 -11 20 -10 10 3 -11 12
-9 18 9 34 12 10 18 14 15 7 -4 -6 -3 -15 3 -18 6 -4 10 -3 9 2 -3 20 2 33 14
31 6 -2 11 2 10 8 -1 6 9 22 22 34 14 13 25 20 25 15 0 -5 7 0 15 11 13 18 14
18 9 -6 -4 -20 -3 -22 5 -9 7 11 3 49 -14 130 -13 63 -27 123 -30 134 -4 11
-9 26 -11 33 -3 10 -19 3 -54 -22 -28 -20 -54 -36 -59 -36 -15 0 -19 38 -6 57
7 9 11 23 8 30 -3 7 0 19 6 26 5 7 12 30 15 51 3 20 9 43 15 50 6 7 7 17 3 21
-4 5 -2 5 4 2 7 -4 15 6 19 26 4 17 9 35 10 40 1 4 3 11 4 17 0 5 8 7 17 3 14
-5 15 -3 5 15 -7 13 -8 22 -2 22 5 0 11 -5 13 -11 2 -6 4 7 5 30 2 47 19 84
34 75 7 -4 7 1 0 15 -9 16 -9 21 0 21 6 0 9 6 6 14 -3 7 -1 18 5 24 15 15 17
69 5 116 -15 54 -43 69 -120 64 -76 -5 -173 -50 -295 -138 -46 -33 -88 -60
-94 -60 -6 0 -9 13 -6 33 3 17 0 52 -6 77 l-12 44 -149 17 c-83 10 -162 18
-177 18 -20 1 -28 6 -28 19 0 14 -22 29 -82 55 -84 38 -112 44 -122 28 -14
-22 -224 -131 -253 -131 -1 0 15 28 36 63 21 34 44 62 51 62 7 0 15 7 17 15 4
13 3 13 -6 0 -9 -13 -11 -13 -11 3 0 9 7 17 16 17 12 0 14 3 6 13 -6 7 -9 22
-6 33 5 18 -7 24 -114 58 -148 46 -192 54 -192 35z m-2306 -461 c3 -13 -6 -58
-19 -101 -14 -43 -28 -102 -31 -132 l-7 -55 -74 -41 c-44 -24 -80 -38 -90 -35
-12 5 -13 10 -5 18 6 6 8 17 5 24 -3 9 2 14 13 14 14 0 16 3 6 9 -10 6 -11 13
-1 34 7 15 16 24 22 20 6 -3 7 -1 3 6 -11 18 35 103 52 96 12 -4 12 -3 3 9 -7
8 -8 16 -3 18 4 1 18 19 30 39 19 31 52 49 52 29 0 -13 -27 -30 -34 -23 -4 4
-4 -1 0 -11 5 -13 4 -17 -4 -12 -6 3 -13 3 -16 -2 -3 -5 2 -9 10 -9 8 0 24 13
35 29 16 22 18 32 9 42 -7 9 -7 16 -1 20 5 3 11 3 14 -1 2 -5 2 -2 0 5 -4 16
5 32 16 32 5 0 11 -10 15 -22z m726 -69 c0 -10 -11 -31 -25 -46 l-24 -28 -1
69 0 69 25 -23 c14 -13 25 -31 25 -41z m931 37 c5 3 9 0 9 -6 0 -7 -7 -10 -15
-6 -8 3 -15 1 -15 -4 0 -6 11 -10 24 -10 31 0 37 -17 19 -60 -15 -38 -39 -67
-66 -82 -16 -8 -17 -7 -8 11 14 26 14 34 -1 25 -8 -5 -9 -2 -3 12 4 10 7 27 7
37 0 10 6 21 14 24 7 3 11 9 8 15 -3 5 -3 21 1 36 4 15 10 21 12 14 3 -6 9
-10 14 -6z m479 -61 c13 -11 20 -15 17 -8 -5 7 0 9 14 6 14 -4 17 -8 9 -13 -9
-6 -9 -9 0 -15 7 -4 16 -2 20 5 4 7 16 9 27 6 23 -7 21 -24 -21 -196 -14 -58
-28 -122 -31 -142 -5 -35 -25 -54 -25 -25 0 6 -11 35 -24 64 -29 60 -82 104
-159 128 -29 10 -60 26 -69 37 -16 18 -22 17 -20 -3 1 -3 -6 -6 -14 -6 -10 0
-9 7 8 24 12 13 26 23 32 23 6 0 4 -5 -4 -11 -12 -8 -11 -9 5 -7 24 4 48 33
42 51 -3 7 -9 2 -14 -12 -5 -14 -12 -20 -15 -15 -3 5 15 32 40 59 25 28 39 41
31 30 -13 -18 -13 -19 4 -6 9 7 17 19 17 25 0 6 5 18 10 26 8 12 12 13 19 2 6
-11 10 -9 14 7 3 14 1 19 -6 14 -7 -4 -6 0 1 10 12 15 16 14 41 -11 15 -15 38
-36 51 -47z m494 -11 c16 -6 12 -24 -5 -24 -6 0 -8 4 -5 9 4 5 0 12 -6 14 -7
3 -10 6 -6 6 3 1 13 -2 22 -5z m16 -49 c0 -8 -4 -15 -10 -15 -5 0 -10 7 -10
15 0 8 5 15 10 15 6 0 10 -7 10 -15z m792 -81 c10 -21 7 -52 -16 -172 -15 -81
-30 -159 -33 -174 -2 -16 -8 -28 -11 -28 -8 0 -50 237 -51 282 -1 44 16 77 51
98 42 26 46 25 60 -6z m-966 -31 c13 -29 14 -58 9 -142 -4 -58 -9 -114 -11
-123 -6 -20 -29 -24 -40 -6 -10 16 -21 208 -12 208 4 0 5 14 2 30 -4 20 -2 30
5 30 7 0 9 -5 5 -12 -4 -7 -3 -8 5 -4 9 6 9 11 -1 24 -11 13 -10 15 5 9 19 -7
24 9 5 16 -10 4 -10 6 0 6 7 1 20 -16 28 -36z m-1653 -115 c-17 -4 -36 -15
-43 -23 -15 -18 -43 -20 -37 -2 2 6 12 11 21 11 9 -1 16 2 16 6 0 11 53 29 65
22 5 -3 -5 -9 -22 -14z m942 -23 c17 -3 35 -11 40 -16 7 -7 0 -8 -20 -3 -16 4
-27 3 -23 -1 4 -4 22 -8 40 -9 25 -1 34 -6 36 -22 2 -17 -7 -26 -47 -43 -28
-12 -77 -24 -111 -28 l-60 -6 0 62 c0 36 4 61 11 61 5 0 7 4 4 10 -6 10 76 7
130 -5z m-410 -66 c22 -41 11 -36 -14 7 -12 19 -16 32 -11 29 6 -3 17 -19 25
-36z m31 -37 c-2 -4 11 -25 30 -47 38 -43 68 -94 61 -101 -2 -3 -12 10 -21 28
-9 18 -31 51 -50 73 -30 34 -37 55 -20 55 3 0 3 -4 0 -8z m128 -188 c3 -8 2
-12 -4 -9 -6 3 -10 10 -10 16 0 14 7 11 14 -7z m121 -44 c3 -5 1 -10 -4 -10
-6 0 -11 5 -11 10 0 6 2 10 4 10 3 0 8 -4 11 -10z m-1500 -68 c-3 -3 -11 0
-18 7 -9 10 -8 11 6 5 10 -3 15 -9 12 -12z m2467 -92 c-6 -16 -11 -20 -16 -11
-4 6 -2 19 5 27 16 20 21 12 11 -16z"/>
<path d="M665 1480 c-9 -16 -13 -30 -11 -30 3 0 12 14 21 30 9 17 13 30 11 30
-3 0 -12 -13 -21 -30z"/>
<path d="M616 1395 c-3 -8 -1 -15 4 -15 6 0 10 7 10 15 0 8 -2 15 -4 15 -2 0
-6 -7 -10 -15z"/>
<path d="M2830 1580 c0 -5 5 -10 11 -10 5 0 7 5 4 10 -3 6 -8 10 -11 10 -2 0
-4 -4 -4 -10z"/>
<path d="M2770 1515 c-11 -13 -10 -14 4 -9 9 3 16 10 16 15 0 13 -6 11 -20 -6z"/>
<path d="M4210 1440 c-9 -6 -10 -10 -3 -10 6 0 15 5 18 10 8 12 4 12 -15 0z"/>
<path d="M4171 1417 c-6 -8 -8 -17 -4 -20 3 -4 0 -15 -8 -24 -12 -17 -12 -17
4 -2 10 8 19 25 22 37 5 25 2 27 -14 9z"/>
<path d="M2528 1253 c6 -2 18 -2 25 0 6 3 1 5 -13 5 -14 0 -19 -2 -12 -5z"/>
<path d="M4968 1970 c-25 -15 -148 -172 -148 -189 0 -8 7 -22 16 -32 14 -15
11 -22 -36 -75 -168 -191 -219 -298 -173 -364 20 -28 74 -80 84 -80 3 0 18
-10 32 -23 14 -12 50 -38 81 -57 30 -19 52 -38 49 -42 -2 -5 -1 -8 4 -7 16 4
63 -24 63 -38 0 -8 4 -12 9 -9 5 3 20 -5 35 -19 15 -13 29 -25 31 -25 3 0 9 0
15 0 5 0 9 -6 7 -12 -1 -7 4 -12 11 -11 6 2 12 -2 12 -9 0 -6 3 -9 6 -5 3 3
11 1 18 -4 6 -6 43 -31 82 -57 l71 -47 -1 -58 c0 -61 16 -89 52 -92 18 -1 20
2 25 73 4 41 31 77 49 66 5 -3 8 0 8 7 0 10 3 10 11 2 12 -12 3 -37 -11 -28
-5 3 -11 1 -15 -5 -4 -6 -10 -8 -15 -5 -5 3 -11 2 -14 -3 -3 -5 9 -8 25 -8 42
1 49 20 35 96 -7 36 -11 75 -9 85 1 11 5 34 7 50 3 17 5 32 6 35 1 3 1 43 0
90 -1 47 -3 99 -3 115 0 37 10 158 13 165 2 3 4 28 6 55 2 28 6 82 9 120 3 39
6 78 6 88 0 9 4 17 9 17 5 0 7 14 4 30 -4 17 -2 30 3 30 10 0 2 87 -10 107
-10 15 -115 47 -226 67 -94 18 -207 20 -233 6z m380 -312 c5 -7 9 -38 7 -68
-1 -30 -6 -153 -10 -273 -5 -120 -12 -220 -17 -223 -4 -3 -8 12 -8 33 0 73
-12 114 -35 125 -20 9 -21 14 -14 66 4 31 10 95 14 142 10 140 16 193 21 202
8 12 30 10 42 -4z m-309 -194 l2 -146 -41 23 c-52 29 -63 43 -65 79 -2 25 0
28 13 17 13 -10 14 -9 3 11 -8 15 -8 22 -1 22 6 0 9 4 6 8 -7 12 12 38 21 29
4 -5 1 -12 -7 -17 -17 -11 -9 -13 14 -4 12 5 13 10 5 26 -12 23 3 49 16 27 6
-8 4 -10 -5 -4 -9 5 -11 4 -6 -4 6 -9 11 -9 22 0 16 13 19 23 5 15 -16 -10
-18 18 -3 42 8 12 15 22 16 22 1 0 3 -66 5 -146z m-355 -79 c-4 -8 -2 -15 4
-15 5 0 13 7 16 16 5 13 9 14 21 4 8 -7 12 -17 8 -24 -3 -6 -3 -8 2 -4 7 7 84
-43 129 -84 11 -10 54 -43 98 -75 43 -31 78 -61 78 -65 0 -4 5 -8 10 -8 6 0
71 -46 145 -102 128 -96 156 -128 122 -141 -7 -3 -101 56 -209 132 -107 75
-247 172 -311 216 -129 90 -141 103 -127 140 5 14 12 25 14 25 3 0 3 -7 0 -15z
m646 -321 c0 -8 -5 -12 -10 -9 -6 4 -8 11 -5 16 9 14 15 11 15 -7z"/>
<path d="M5310 1656 c0 -2 7 -6 15 -10 8 -3 15 -1 15 4 0 6 -7 10 -15 10 -8 0
-15 -2 -15 -4z"/>
<path d="M3387 1925 c-4 -8 -1 -17 6 -21 7 -4 9 -4 5 1 -4 4 -3 14 3 22 7 8 8
13 1 13 -5 0 -12 -7 -15 -15z"/>
<path d="M1005 1890 c-18 -20 -18 -21 0 -14 14 6 16 4 10 -7 -6 -11 -5 -12 5
-2 15 14 22 43 11 43 -4 0 -16 -9 -26 -20z"/>
<path d="M3361 1873 c-10 -26 -10 -27 4 -9 8 11 15 23 15 28 0 15 -7 8 -19
-19z"/>
<path d="M2936 1084 c-9 -24 -2 -26 12 -4 7 11 8 20 3 20 -5 0 -12 -7 -15 -16z"/>
<path d="M4008 983 c6 -2 18 -2 25 0 6 3 1 5 -13 5 -14 0 -19 -2 -12 -5z"/>
<path d="M4118 983 c7 -3 16 -2 19 1 4 3 -2 6 -13 5 -11 0 -14 -3 -6 -6z"/>
<path d="M3856 967 c8 -5 33 -4 57 1 l42 9 -57 -1 c-34 -1 -51 -4 -42 -9z"/>
<path d="M2752 953 c-6 -2 -9 -9 -6 -15 3 -5 0 -8 -7 -7 -22 4 -60 -11 -54
-22 4 -5 11 -9 16 -9 6 0 7 5 3 12 -5 7 -2 9 7 6 18 -7 53 12 57 30 1 6 1 12
0 11 -2 0 -9 -3 -16 -6z"/>
<path d="M1146 937 c3 -10 9 -15 12 -12 3 3 0 11 -7 18 -10 9 -11 8 -5 -6z"/>
<path d="M572 929 c-19 -7 -23 -29 -6 -29 3 0 2 5 -1 10 -3 6 1 10 9 10 8 0
18 5 21 10 7 12 7 12 -23 -1z"/>
<path d="M1073 923 c-7 -2 -13 -10 -13 -16 0 -8 4 -7 12 1 14 14 32 16 23 2
-3 -6 1 -7 10 -3 13 5 14 7 3 14 -14 10 -17 10 -35 2z"/>
<path d="M1030 900 c0 -5 5 -10 11 -10 5 0 7 5 4 10 -3 6 -8 10 -11 10 -2 0
-4 -4 -4 -10z"/>
<path d="M4627 899 c7 -7 15 -10 18 -7 3 3 -2 9 -12 12 -14 6 -15 5 -6 -5z"/>
<path d="M473 884 c0 -16 13 -19 21 -5 3 5 0 11 -7 14 -8 3 -14 -1 -14 -9z"/>
<path d="M518 893 c6 -2 18 -2 25 0 6 3 1 5 -13 5 -14 0 -19 -2 -12 -5z"/>
<path d="M2636 891 c-3 -4 6 -6 19 -3 14 2 25 6 25 8 0 8 -39 4 -44 -5z"/>
<path d="M415 880 c-13 -6 -15 -9 -5 -9 8 0 22 4 30 9 18 12 2 12 -25 0z"/>
<path d="M4608 883 c10 -4 9 -10 -5 -27 l-18 -21 22 19 c23 19 22 37 0 35 -8
0 -8 -2 1 -6z"/>
<path d="M343 873 c9 -2 23 -2 30 0 6 3 -1 5 -18 5 -16 0 -22 -2 -12 -5z"/>
<path d="M3490 870 c0 -5 5 -10 10 -10 6 0 10 5 10 10 0 6 -4 10 -10 10 -5 0
-10 -4 -10 -10z"/>
<path d="M3528 873 c7 -3 16 -2 19 1 4 3 -2 6 -13 5 -11 0 -14 -3 -6 -6z"/>
<path d="M3690 849 c0 -5 5 -7 10 -4 6 3 10 8 10 11 0 2 -4 4 -10 4 -5 0 -10
-5 -10 -11z"/>
<path d="M867 838 c-16 -12 -15 -13 7 -14 17 -1 23 2 19 12 -6 17 -5 17 -26 2z"/>
<path d="M1516 818 c3 -5 10 -6 15 -3 13 9 11 12 -6 12 -8 0 -12 -4 -9 -9z"/>
<path d="M2311 790 c10 -7 49 -2 49 5 0 2 -14 3 -31 3 -17 -1 -25 -4 -18 -8z"/>
<path d="M2250 774 c-16 -8 -19 -14 -9 -14 8 0 24 7 35 15 24 18 7 18 -26 -1z"/>
<path d="M4457 763 c-4 -3 -7 -11 -7 -17 0 -6 5 -5 12 2 6 6 9 14 7 17 -3 3
-9 2 -12 -2z"/>
<path d="M2095 740 c-13 -5 -14 -9 -5 -9 8 0 24 4 35 9 13 5 14 9 5 9 -8 0
-24 -4 -35 -9z"/>
<path d="M4391 720 c-31 -26 -17 -26 16 0 14 11 22 20 17 20 -5 -1 -20 -10
-33 -20z"/>
<path d="M2018 713 c7 -3 16 -2 19 1 4 3 -2 6 -13 5 -11 0 -14 -3 -6 -6z"/>
<path d="M3340 710 c-8 -5 -12 -12 -9 -15 4 -3 12 1 19 10 14 17 11 19 -10 5z"/>
<path d="M3250 706 c0 -2 14 -6 30 -8 17 -3 30 -1 30 4 0 4 -13 8 -30 8 -16 0
-30 -2 -30 -4z"/>
<path d="M4315 700 c-19 -8 -19 -9 2 -9 12 -1 25 4 28 9 7 12 -2 12 -30 0z"/>
<path d="M3597 459 c-43 -22 -42 -45 1 -27 35 15 45 24 41 36 -2 6 -20 2 -42
-9z"/>
<path d="M1620 290 l0 -110 73 0 c86 0 117 16 117 60 0 20 -7 33 -21 41 l-21
11 21 19 c27 25 27 43 -1 69 -18 16 -35 20 -95 20 l-73 0 0 -110z m144 65 c14
-36 -16 -55 -76 -46 -23 3 -28 8 -28 32 0 28 2 29 49 29 34 0 51 -4 55 -15z
m-6 -87 c33 -33 1 -68 -62 -68 -35 0 -36 1 -36 40 l0 40 43 0 c24 0 48 -5 55
-12z"/>
<path d="M2027 393 c-8 -14 -87 -202 -87 -207 0 -16 38 -3 43 14 4 14 14 20
35 20 16 0 43 3 60 6 27 5 33 3 43 -20 7 -15 20 -26 31 -26 23 0 21 7 -32 129
-32 71 -43 87 -63 89 -14 2 -27 0 -30 -5z m53 -89 c11 -25 20 -48 20 -50 0 -2
-20 -4 -45 -4 -25 0 -45 2 -45 4 0 11 40 96 45 96 3 0 15 -21 25 -46z"/>
<path d="M2310 290 c0 -103 1 -110 20 -110 17 0 20 7 20 45 0 62 28 62 67 0
20 -32 35 -45 51 -45 25 0 24 4 -15 57 l-24 31 21 7 c27 8 44 46 37 78 -9 32
-46 47 -117 47 l-60 0 0 -110z m135 45 c0 -26 -5 -31 -36 -39 -53 -13 -66 -5
-61 38 l4 37 47 -3 c44 -3 46 -4 46 -33z"/>
<path d="M2640 290 l0 -110 73 0 c107 0 148 40 97 95 -18 20 -19 23 -5 35 8 7
15 23 15 36 0 37 -36 54 -112 54 l-68 0 0 -110z m138 68 c7 -7 8 -17 1 -30 -7
-14 -21 -18 -59 -18 -49 0 -50 1 -50 30 0 29 1 30 48 30 26 0 53 -5 60 -12z
m-7 -88 c28 -16 24 -49 -8 -61 -45 -17 -87 -8 -91 19 -6 39 5 52 43 52 20 0
45 -5 56 -10z"/>
<path d="M2970 290 l0 -110 70 0 c40 0 70 4 70 10 0 6 -22 10 -50 10 l-50 0 0
40 0 40 45 0 c25 0 45 5 45 10 0 6 -20 10 -45 10 -45 0 -45 0 -45 35 l0 35 50
0 c38 0 50 4 50 15 0 12 -14 15 -70 15 l-70 0 0 -110z"/>
<path d="M3250 290 c0 -103 1 -110 20 -110 17 0 20 7 20 45 0 38 3 45 20 45
13 0 32 -17 52 -45 23 -32 39 -45 56 -45 l24 0 -31 42 -31 42 30 24 c29 23 38
54 22 78 -15 23 -53 34 -116 34 l-66 0 0 -110z m145 45 c0 -26 -5 -31 -36 -39
-52 -13 -69 -3 -69 39 l0 36 53 -3 c50 -3 52 -4 52 -33z"/>
<path d="M3582 293 c3 -93 5 -108 21 -111 15 -3 17 7 17 107 0 105 -1 111 -20
111 -20 0 -21 -5 -18 -107z"/>
<path d="M3841 378 c-5 -13 -25 -61 -45 -106 -20 -46 -36 -86 -36 -88 0 -14
40 0 45 16 5 17 15 20 70 20 55 0 65 -3 70 -20 6 -19 45 -29 45 -12 0 4 -19
52 -43 107 -38 88 -47 100 -70 103 -21 3 -29 -2 -36 -20z m59 -74 c11 -25 20
-48 20 -50 0 -2 -20 -4 -45 -4 -25 0 -45 2 -45 4 0 9 41 96 46 96 3 0 14 -21
24 -46z"/>
</g>
</svg>
